# xmcd
#
# Track frame offsets:
#	150
#	14194
#	32483
#	52588
#	65748
#	84102
#	98270
#	114308
#	129936
#	146076
#	151838
#	167879
#	177946
#	194447
#	203654
#	226742
#	240019
#	255134
#	270686
#
# Disc length: 3936 seconds
#
# Revision: 2
# Processed by: cddbd v1.5PL3 Copyright (c) Steve Scherf et al.
# Submitted via: EasyCDDAExtractor 6.5.0.3
#
DISCID=e00f5e13
DTITLE=Grietjie van Garies - Lekker Ou-Jan se Ma
DYEAR=1900
DGENRE=
TTITLE0=Dis 'n Lekker Ou-Jan
TTITLE1=Hartseer en verdriet
TTITLE2=Miemie Kroon
TTITLE3=Die Bou-man se wals
TTITLE4=Boeta Piet se mes is vloor
TTITLE5=Stadig stap oor die klippertjies
TTITLE6=Mooie meisie
TTITLE7=Trek, en 'n trek, en 'n druiwe tros
TTITLE8=Môre, o môre my Baas
TTITLE9=O, my Damadee
TTITLE10=Ol'fant se plantjie
TTITLE11=Agter die rand lê 'n plaas
TTITLE12=Mr Payne se Office
TTITLE13=Lekker Ou-Jan se storie
TTITLE14=Raaisels
TTITLE15=Hoor wat sê Draghoender
TTITLE16=Grietjie praat Engels and Aftelrympies
TTITLE17=Kitaar se snare
TTITLE18=Grietjie se deel vir padveiligheid
EXTD=
EXTT0=
EXTT1=
EXTT2=
EXTT3=
EXTT4=
EXTT5=
EXTT6=
EXTT7=
EXTT8=
EXTT9=
EXTT10=
EXTT11=
EXTT12=
EXTT13=
EXTT14=
EXTT15=
EXTT16=
EXTT17=
EXTT18=
PLAYORDER=
